<svg xmlns="http://www.w3.org/2000/svg" version="1.1" xmlns:xlink="http://www.w3.org/1999/xlink" xmlns:svgjs="http://svgjs.dev/svgjs" width="2000" height="515" viewBox="0 0 2000 515"><g transform="matrix(1,0,0,1,-1.2121212121212466,0.0506620969749747)"><svg viewBox="0 0 396 102" data-background-color="#3f70ad" preserveAspectRatio="xMidYMid meet" height="515" width="2000" xmlns="http://www.w3.org/2000/svg" xmlns:xlink="http://www.w3.org/1999/xlink"><g id="tight-bounds" transform="matrix(1,0,0,1,0.2400000000000091,-0.010034046391155016)"><svg viewBox="0 0 395.52 102.02006809278232" height="102.02006809278232" width="395.52"><g><svg viewBox="0 0 559.7653342972895 144.38535983259644" height="102.02006809278232" width="395.52"><g transform="matrix(1,0,0,1,164.2453342972896,2.5422410197249405)"><svg viewBox="0 0 395.52 139.30087779314655" height="139.30087779314655" width="395.52"><g id="textblocktransform"><svg viewBox="0 0 395.52 139.30087779314655" height="139.30087779314655" width="395.52" id="textblock"><g><svg viewBox="0 0 395.52 84.12534296028882" height="84.12534296028882" width="395.52"><g transform="matrix(1,0,0,1,0,0)"><svg width="395.52" viewBox="4.25 -35 166.19 35.35" height="84.12534296028882" data-palette-color="#f6f6f6"><path d="M4.25 0L4.25-35 27.2-35 27.2-31.5 8.25-31.5 8.25-19.55 22.5-19.55 22.5-16.05 8.25-16.05 8.25 0 4.25 0ZM40.8 0.35L40.8 0.35Q37.25 0.35 34.45-1.2 31.65-2.75 30.05-5.63 28.45-8.5 28.45-12.45L28.45-12.45Q28.45-16.45 30.07-19.35 31.7-22.25 34.52-23.8 37.35-25.35 40.9-25.35L40.9-25.35Q44.45-25.35 47.27-23.8 50.1-22.25 51.72-19.38 53.35-16.5 53.35-12.55L53.35-12.55Q53.35-8.55 51.7-5.65 50.05-2.75 47.2-1.2 44.35 0.35 40.8 0.35ZM40.75-3.2L40.75-3.2Q42.95-3.2 44.9-4.17 46.85-5.15 48.07-7.23 49.3-9.3 49.3-12.5L49.3-12.5Q49.3-15.75 48.1-17.8 46.9-19.85 44.97-20.83 43.05-21.8 40.85-21.8L40.85-21.8Q38.65-21.8 36.75-20.83 34.85-19.85 33.67-17.78 32.5-15.7 32.5-12.5L32.5-12.5Q32.5-9.25 33.65-7.2 34.8-5.15 36.67-4.17 38.55-3.2 40.75-3.2ZM59.5 0L59.5-25 62.95-25 63.15-21.35Q64.15-22.7 65.57-23.65 67-24.6 68.72-24.98 70.45-25.35 72.4-25L72.4-25 72.4-21.25Q70.3-21.65 68.62-21.25 66.95-20.85 65.75-19.75 64.55-18.65 63.9-16.98 63.25-15.3 63.25-13.1L63.25-13.1 63.25 0 59.5 0ZM75.34-25L79.09-25 79.09-32 82.84-32 82.84-25 89.49-25 89.49-21.5 82.84-21.5 82.84-8.05Q82.84-5.75 83.82-4.7 84.79-3.65 86.32-3.45 87.84-3.25 89.49-3.45L89.49-3.45 89.49-0.2Q87.54 0.25 85.67 0.05 83.79-0.15 82.32-1.07 80.84-2 79.97-3.7 79.09-5.4 79.09-8.05L79.09-8.05 79.09-21.5 75.34-21.5 75.34-25ZM115.54-25L115.54 0 112.14 0 111.89-3.6Q110.74-1.7 108.79-0.68 106.84 0.35 104.24 0.35L104.24 0.35Q101.34 0.35 99.19-0.85 97.04-2.05 95.87-4.45 94.69-6.85 94.69-10.5L94.69-10.5 94.69-25 98.39-25 98.39-10.9Q98.39-7.05 100.07-5.08 101.74-3.1 104.89-3.1L104.89-3.1Q108.09-3.1 109.97-5.18 111.84-7.25 111.84-11.45L111.84-11.45 111.84-25 115.54-25ZM123.19 0L123.19-25 126.64-25 126.84-21.45Q128.04-23.3 129.99-24.33 131.94-25.35 134.54-25.35L134.54-25.35Q137.39-25.35 139.54-24.13 141.69-22.9 142.89-20.48 144.09-18.05 144.09-14.4L144.09-14.4 144.09 0 140.34 0 140.34-13.95Q140.34-17.85 138.66-19.88 136.99-21.9 133.84-21.9L133.84-21.9Q130.59-21.9 128.76-19.75 126.94-17.6 126.94-13.4L126.94-13.4 126.94 0 123.19 0ZM170.44 0L166.99 0 166.69-4.5Q165.64-2.2 163.59-0.93 161.54 0.35 158.39 0.35L158.39 0.35Q155.69 0.35 153.79-0.5 151.89-1.35 150.86-2.93 149.84-4.5 149.84-6.65L149.84-6.65Q149.84-9.8 152.19-11.83 154.54-13.85 158.99-14.3L158.99-14.3 166.69-15.15 166.69-17.15Q166.69-19.25 165.14-20.53 163.59-21.8 160.94-21.8L160.94-21.8Q158.34-21.8 156.61-20.6 154.89-19.4 154.24-17.15L154.24-17.15 150.84-18.35Q151.84-21.65 154.51-23.5 157.19-25.35 161.04-25.35L161.04-25.35Q165.49-25.35 167.96-23.08 170.44-20.8 170.44-16.9L170.44-16.9 170.44 0ZM166.69-11.15L166.69-11.95 158.94-11.05Q156.44-10.75 155.14-9.68 153.84-8.6 153.84-6.85L153.84-6.85Q153.84-5.1 155.11-4.05 156.39-3 158.79-3L158.79-3Q161.54-3 163.29-4.1 165.04-5.2 165.86-7.08 166.69-8.95 166.69-11.15L166.69-11.15Z" opacity="1" transform="matrix(1,0,0,1,0,0)" fill="#dddddd" class="wordmark-text-0" data-fill-palette-color="primary" id="text-0"></path></svg></g></svg></g><g transform="matrix(1,0,0,1,0,103.98531742498196)"><svg viewBox="0 0 395.52 35.31556036816459" height="35.31556036816459" width="395.52"><g transform="matrix(1,0,0,1,0,0)"><svg width="395.52" viewBox="4.27 -36.74 541.0600000000001 48.31" height="35.31556036816459" data-palette-color="#f6f6f6"><path d="M8.23 10.64L4.27 10.64 4.27-24.98 7.57-24.98 7.93-22.09 8.03-22.09Q9.74-23.49 11.83-24.55 13.92-25.61 16.06-25.61L16.06-25.61Q20.95-25.61 23.49-22.14 26.03-18.68 26.03-12.87L26.03-12.87Q26.03-8.62 24.51-5.6 23-2.59 20.52-0.99 18.04 0.61 15.14 0.61L15.14 0.61Q13.43 0.61 11.67-0.15 9.91-0.9 8.13-2.29L8.13-2.29 8.23 2.1 8.23 10.64ZM14.53-2.71L14.53-2.71Q17.72-2.71 19.84-5.43 21.95-8.15 21.95-12.82L21.95-12.82Q21.95-17.04 20.36-19.68 18.77-22.31 15.14-22.31L15.14-22.31Q13.5-22.31 11.82-21.4 10.13-20.48 8.23-18.75L8.23-18.75 8.23-5.4Q10.01-3.93 11.63-3.32 13.26-2.71 14.53-2.71ZM42.8 0.61L42.8 0.61Q39.5 0.61 36.8-0.95 34.1-2.51 32.5-5.44 30.91-8.37 30.91-12.45L30.91-12.45Q30.91-16.53 32.5-19.48 34.1-22.44 36.67-24.02 39.23-25.61 42.09-25.61L42.09-25.61Q46.8-25.61 49.39-22.46 51.98-19.31 51.98-13.89L51.98-13.89Q51.98-12.52 51.83-11.57L51.83-11.57 34.81-11.57Q35.01-7.5 37.3-5 39.6-2.51 43.26-2.51L43.26-2.51Q45.14-2.51 46.7-3.02 48.26-3.52 49.61-4.42L49.61-4.42 51-1.95Q49.36-0.83 47.39-0.11 45.41 0.61 42.8 0.61ZM34.76-14.43L34.76-14.43 48.48-14.43Q48.48-18.36 46.82-20.41 45.16-22.46 42.14-22.46L42.14-22.46Q39.43-22.46 37.29-20.36 35.15-18.26 34.76-14.43ZM62.15 0L58.2 0 58.2-24.98 61.49-24.98 61.86-20.46 61.96-20.46Q63.28-22.8 65.11-24.21 66.94-25.61 69.06-25.61L69.06-25.61Q70.67-25.61 71.7-25.1L71.7-25.1 70.82-21.73Q70.28-21.9 69.81-21.97 69.33-22.05 68.55-22.05L68.55-22.05Q66.96-22.05 65.2-20.74 63.45-19.43 62.15-16.16L62.15-16.16 62.15 0ZM82.37 0.61L82.37 0.61Q79.58 0.61 77.19-0.33 74.8-1.27 73.09-2.93L73.09-2.93 74.94-5.25Q76.53-3.93 78.33-3.2 80.12-2.47 82.51-2.47L82.51-2.47Q85.03-2.47 86.3-3.67 87.57-4.88 87.57-6.54L87.57-6.54Q87.57-7.86 86.74-8.73 85.91-9.59 84.6-10.21 83.29-10.82 81.85-11.33L81.85-11.33Q80-12.01 78.31-12.92 76.63-13.82 75.55-15.19 74.48-16.55 74.48-18.6L74.48-18.6Q74.48-21.53 76.7-23.57 78.92-25.61 82.98-25.61L82.98-25.61Q85.3-25.61 87.26-24.82 89.23-24.02 90.67-22.83L90.67-22.83 88.86-20.51Q87.54-21.46 86.14-21.98 84.73-22.51 83.02-22.51L83.02-22.51Q80.56-22.51 79.42-21.37 78.29-20.24 78.29-18.8L78.29-18.8Q78.29-17.02 79.8-16.11 81.32-15.21 83.59-14.36L83.59-14.36Q85.56-13.67 87.35-12.78 89.13-11.89 90.25-10.47 91.37-9.06 91.37-6.74L91.37-6.74Q91.37-3.71 89.06-1.55 86.74 0.61 82.37 0.61ZM106.97 0.61L106.97 0.61Q103.95 0.61 101.32-0.93 98.7-2.47 97.1-5.38 95.5-8.3 95.5-12.45L95.5-12.45Q95.5-16.63 97.1-19.57 98.7-22.51 101.32-24.06 103.95-25.61 106.97-25.61L106.97-25.61Q110.05-25.61 112.69-24.06 115.32-22.51 116.92-19.57 118.52-16.63 118.52-12.45L118.52-12.45Q118.52-8.3 116.92-5.38 115.32-2.47 112.69-0.93 110.05 0.61 106.97 0.61ZM106.97-2.66L106.97-2.66Q110.32-2.66 112.39-5.36 114.47-8.06 114.47-12.45L114.47-12.45Q114.47-16.87 112.39-19.59 110.32-22.31 106.97-22.31L106.97-22.31Q104.8-22.31 103.12-21.07 101.43-19.82 100.49-17.61 99.55-15.41 99.55-12.45L99.55-12.45Q99.55-8.06 101.63-5.36 103.7-2.66 106.97-2.66ZM129.19 0L125.23 0 125.23-24.98 128.53-24.98 128.89-21.39 128.99-21.39Q130.8-23.17 132.82-24.39 134.85-25.61 137.44-25.61L137.44-25.61Q141.34-25.61 143.18-23.13 145.01-20.65 145.01-15.87L145.01-15.87 145.01 0 141.1 0 141.1-15.36Q141.1-18.92 139.95-20.56 138.81-22.19 136.19-22.19L136.19-22.19Q134.26-22.19 132.7-21.17 131.14-20.14 129.19-18.19L129.19-18.19 129.19 0ZM159.02 0.61L159.02 0.61Q155.89 0.61 153.79-1.21 151.69-3.03 151.69-6.42L151.69-6.42Q151.69-10.52 155.42-12.72 159.14-14.92 167.17-15.82L167.17-15.82Q167.17-17.48 166.72-18.97 166.27-20.46 165.13-21.41 164-22.36 161.9-22.36L161.9-22.36Q159.68-22.36 157.74-21.51 155.8-20.65 154.33-19.73L154.33-19.73 152.79-22.36Q154.45-23.51 156.98-24.56 159.51-25.61 162.53-25.61L162.53-25.61Q167.1-25.61 169.11-22.8 171.13-20 171.13-15.41L171.13-15.41 171.13 0 167.83 0 167.51-3.03 167.37-3.03Q165.56-1.54 163.45-0.46 161.34 0.61 159.02 0.61ZM160.09-2.56L160.09-2.56Q161.97-2.56 163.62-3.44 165.27-4.32 167.17-5.96L167.17-5.96 167.17-13.18Q162.85-12.65 160.31-11.77 157.77-10.89 156.67-9.64 155.58-8.4 155.58-6.74L155.58-6.74Q155.58-4.52 156.89-3.54 158.21-2.56 160.09-2.56ZM183.38 0.61L183.38 0.61Q181.13 0.61 180.12-0.77 179.11-2.15 179.11-4.79L179.11-4.79 179.11-36.74 183.06-36.74 183.06-4.47Q183.06-3.47 183.43-3.06 183.8-2.66 184.31-2.66L184.31-2.66Q184.5-2.66 184.69-2.67 184.87-2.69 185.19-2.76L185.19-2.76 185.7 0.2Q185.29 0.37 184.7 0.49 184.11 0.61 183.38 0.61ZM219.04 0.61L219.04 0.61Q217.31 0.61 215.43-0.23 213.55-1.07 211.89-2.56L211.89-2.56 211.72-2.56 211.38 0 208.18 0 208.18-36.74 212.14-36.74 212.14-26.64 211.99-22.05Q213.77-23.56 215.81-24.58 217.85-25.61 219.97-25.61L219.97-25.61Q224.86-25.61 227.39-22.14 229.93-18.68 229.93-12.87L229.93-12.87Q229.93-8.62 228.42-5.6 226.91-2.59 224.43-0.99 221.95 0.61 219.04 0.61ZM218.43-2.71L218.43-2.71Q221.63-2.71 223.74-5.43 225.86-8.15 225.86-12.82L225.86-12.82Q225.86-17.04 224.27-19.68 222.68-22.31 219.04-22.31L219.04-22.31Q217.41-22.31 215.71-21.4 214.02-20.48 212.14-18.75L212.14-18.75 212.14-5.4Q213.84-3.93 215.5-3.32 217.17-2.71 218.43-2.71ZM243.92 0.61L243.92 0.61Q239.99 0.61 238.15-1.86 236.3-4.32 236.3-9.11L236.3-9.11 236.3-24.98 240.21-24.98 240.21-9.62Q240.21-6.08 241.37-4.46 242.53-2.83 245.12-2.83L245.12-2.83Q247.07-2.83 248.62-3.85 250.17-4.86 252.03-7.15L252.03-7.15 252.03-24.98 255.93-24.98 255.93 0 252.68 0 252.34-3.96 252.17-3.96Q250.44-1.9 248.46-0.65 246.48 0.61 243.92 0.61ZM273.04 0.61L273.04 0.61Q268.38 0.61 265.56-2.8 262.74-6.2 262.74-12.45L262.74-12.45Q262.74-16.5 264.27-19.46 265.79-22.41 268.27-24.01 270.75-25.61 273.61-25.61L273.61-25.61Q275.78-25.61 277.4-24.84 279.03-24.07 280.66-22.71L280.66-22.71 280.51-27 280.51-36.74 284.49-36.74 284.49 0 281.2 0 280.88-2.98 280.73-2.98Q279.24-1.51 277.29-0.45 275.34 0.61 273.04 0.61ZM273.92-2.71L273.92-2.71Q275.7-2.71 277.29-3.58 278.88-4.44 280.51-6.23L280.51-6.23 280.51-19.58Q278.85-21.04 277.34-21.68 275.83-22.31 274.24-22.31L274.24-22.31Q272.16-22.31 270.49-21.07 268.82-19.82 267.82-17.6 266.82-15.38 266.82-12.45L266.82-12.45Q266.82-7.89 268.67-5.3 270.53-2.71 273.92-2.71ZM301.48 11.57L301.48 11.57Q296.85 11.57 293.99 9.83 291.13 8.08 291.13 4.83L291.13 4.83Q291.13 3.2 292.11 1.73 293.09 0.27 294.77-0.85L294.77-0.85 294.77-1.07Q293.87-1.64 293.22-2.65 292.57-3.66 292.57-5.15L292.57-5.15Q292.57-6.74 293.48-7.93 294.38-9.13 295.31-9.79L295.31-9.79 295.31-9.99Q294.06-10.96 293.09-12.71 292.11-14.45 292.11-16.67L292.11-16.67Q292.11-19.41 293.38-21.41 294.65-23.41 296.76-24.51 298.87-25.61 301.39-25.61L301.39-25.61Q302.44-25.61 303.33-25.43 304.22-25.24 304.88-24.98L304.88-24.98 313.59-24.98 313.59-21.95 308.34-21.95Q309.27-21.04 309.88-19.65 310.49-18.26 310.49-16.63L310.49-16.63Q310.49-13.96 309.28-12.01 308.08-10.06 306.01-9 303.95-7.93 301.39-7.93L301.39-7.93Q300.46-7.93 299.47-8.15 298.48-8.37 297.63-8.79L297.63-8.79Q296.94-8.23 296.45-7.52 295.97-6.81 295.97-5.76L295.97-5.76Q295.97-4.52 296.91-3.75 297.85-2.98 300.41-2.98L300.41-2.98 305.34-2.98Q309.69-2.98 311.85-1.54 314.01-0.1 314.01 2.98L314.01 2.98Q314.01 5.27 312.47 7.23 310.93 9.18 308.11 10.38 305.29 11.57 301.48 11.57ZM301.39-10.6L301.39-10.6Q303.63-10.6 305.27-12.24 306.9-13.89 306.9-16.67L306.9-16.67Q306.9-19.51 305.28-21.11 303.66-22.71 301.39-22.71L301.39-22.71Q299.09-22.71 297.5-21.11 295.92-19.51 295.92-16.67L295.92-16.67Q295.92-13.89 297.54-12.24 299.16-10.6 301.39-10.6ZM302 8.79L302 8.79Q304.46 8.79 306.27 8.03 308.08 7.28 309.08 6.08 310.08 4.88 310.08 3.54L310.08 3.54Q310.08 1.73 308.8 1.04 307.51 0.34 304.97 0.34L304.97 0.34 300.51 0.34Q299.82 0.34 298.97 0.26 298.11 0.17 297.26-0.05L297.26-0.05Q295.87 0.9 295.25 2.05 294.62 3.2 294.62 4.32L294.62 4.32Q294.62 6.37 296.58 7.58 298.53 8.79 302 8.79ZM328.92 0.61L328.92 0.61Q325.63 0.61 322.93-0.95 320.23-2.51 318.63-5.44 317.03-8.37 317.03-12.45L317.03-12.45Q317.03-16.53 318.63-19.48 320.23-22.44 322.79-24.02 325.36-25.61 328.21-25.61L328.21-25.61Q332.93-25.61 335.51-22.46 338.1-19.31 338.1-13.89L338.1-13.89Q338.1-12.52 337.96-11.57L337.96-11.57 320.94-11.57Q321.13-7.5 323.43-5 325.72-2.51 329.39-2.51L329.39-2.51Q331.27-2.51 332.83-3.02 334.39-3.52 335.73-4.42L335.73-4.42 337.13-1.95Q335.49-0.83 333.51-0.11 331.53 0.61 328.92 0.61ZM320.89-14.43L320.89-14.43 334.61-14.43Q334.61-18.36 332.95-20.41 331.29-22.46 328.26-22.46L328.26-22.46Q325.55-22.46 323.42-20.36 321.28-18.26 320.89-14.43ZM352.04 0.61L352.04 0.61Q348.11 0.61 346.57-1.66 345.03-3.93 345.03-7.62L345.03-7.62 345.03-21.73 341.32-21.73 341.32-24.78 345.25-24.98 345.72-33.08 349.01-33.08 349.01-24.98 355.87-24.98 355.87-21.73 349.01-21.73 349.01-7.52Q349.01-5.2 349.87-3.91 350.72-2.61 352.92-2.61L352.92-2.61Q353.58-2.61 354.31-2.75 355.04-2.88 355.8-3.22L355.8-3.22 356.68-0.44Q355.68 0 354.48 0.31 353.29 0.61 352.04 0.61ZM384.14 0.61L384.14 0.61Q381.36 0.61 378.96-0.33 376.57-1.27 374.86-2.93L374.86-2.93 376.72-5.25Q378.3-3.93 380.1-3.2 381.89-2.47 384.29-2.47L384.29-2.47Q386.8-2.47 388.07-3.67 389.34-4.88 389.34-6.54L389.34-6.54Q389.34-7.86 388.51-8.73 387.68-9.59 386.37-10.21 385.07-10.82 383.63-11.33L383.63-11.33Q381.77-12.01 380.09-12.92 378.4-13.82 377.33-15.19 376.25-16.55 376.25-18.6L376.25-18.6Q376.25-21.53 378.48-23.57 380.7-25.61 384.75-25.61L384.75-25.61Q387.07-25.61 389.03-24.82 391-24.02 392.44-22.83L392.44-22.83 390.63-20.51Q389.32-21.46 387.91-21.98 386.51-22.51 384.8-22.51L384.8-22.51Q382.33-22.51 381.2-21.37 380.06-20.24 380.06-18.8L380.06-18.8Q380.06-17.02 381.58-16.11 383.09-15.21 385.36-14.36L385.36-14.36Q387.34-13.67 389.12-12.78 390.9-11.89 392.03-10.47 393.15-9.06 393.15-6.74L393.15-6.74Q393.15-3.71 390.83-1.55 388.51 0.61 384.14 0.61ZM408.75 0.61L408.75 0.61Q405.72 0.61 403.09-0.93 400.47-2.47 398.87-5.38 397.27-8.3 397.27-12.45L397.27-12.45Q397.27-16.63 398.87-19.57 400.47-22.51 403.09-24.06 405.72-25.61 408.75-25.61L408.75-25.61Q411.82-25.61 414.46-24.06 417.1-22.51 418.7-19.57 420.29-16.63 420.29-12.45L420.29-12.45Q420.29-8.3 418.7-5.38 417.1-2.47 414.46-0.93 411.82 0.61 408.75 0.61ZM408.75-2.66L408.75-2.66Q412.09-2.66 414.17-5.36 416.24-8.06 416.24-12.45L416.24-12.45Q416.24-16.87 414.17-19.59 412.09-22.31 408.75-22.31L408.75-22.31Q406.57-22.31 404.89-21.07 403.2-19.82 402.26-17.61 401.32-15.41 401.32-12.45L401.32-12.45Q401.32-8.06 403.4-5.36 405.48-2.66 408.75-2.66ZM431.28 0.61L431.28 0.61Q429.03 0.61 428.02-0.77 427.01-2.15 427.01-4.79L427.01-4.79 427.01-36.74 430.96-36.74 430.96-4.47Q430.96-3.47 431.33-3.06 431.69-2.66 432.21-2.66L432.21-2.66Q432.4-2.66 432.58-2.67 432.77-2.69 433.08-2.76L433.08-2.76 433.6 0.2Q433.18 0.37 432.6 0.49 432.01 0.61 431.28 0.61ZM447.27 0.61L447.27 0.61Q443.34 0.61 441.49-1.86 439.65-4.32 439.65-9.11L439.65-9.11 439.65-24.98 443.56-24.98 443.56-9.62Q443.56-6.08 444.72-4.46 445.88-2.83 448.46-2.83L448.46-2.83Q450.42-2.83 451.97-3.85 453.52-4.86 455.37-7.15L455.37-7.15 455.37-24.98 459.28-24.98 459.28 0 456.03 0 455.69-3.96 455.52-3.96Q453.79-1.9 451.81-0.65 449.83 0.61 447.27 0.61ZM475.61 0.61L475.61 0.61Q471.68 0.61 470.14-1.66 468.6-3.93 468.6-7.62L468.6-7.62 468.6-21.73 464.89-21.73 464.89-24.78 468.82-24.98 469.29-33.08 472.58-33.08 472.58-24.98 479.44-24.98 479.44-21.73 472.58-21.73 472.58-7.52Q472.58-5.2 473.44-3.91 474.29-2.61 476.49-2.61L476.49-2.61Q477.15-2.61 477.88-2.75 478.61-2.88 479.37-3.22L479.37-3.22 480.25-0.44Q479.25 0 478.05 0.31 476.85 0.61 475.61 0.61ZM489.06 0L485.1 0 485.1-24.98 489.06-24.98 489.06 0ZM487.15-30.25L487.15-30.25Q485.96-30.25 485.23-30.99 484.49-31.74 484.49-32.98L484.49-32.98Q484.49-34.13 485.23-34.86 485.96-35.6 487.15-35.6L487.15-35.6Q488.35-35.6 489.08-34.86 489.82-34.13 489.82-32.98L489.82-32.98Q489.82-31.74 489.08-30.99 488.35-30.25 487.15-30.25ZM507.29 0.61L507.29 0.61Q504.27 0.61 501.64-0.93 499.02-2.47 497.42-5.38 495.82-8.3 495.82-12.45L495.82-12.45Q495.82-16.63 497.42-19.57 499.02-22.51 501.64-24.06 504.27-25.61 507.29-25.61L507.29-25.61Q510.37-25.61 513.01-24.06 515.64-22.51 517.24-19.57 518.84-16.63 518.84-12.45L518.84-12.45Q518.84-8.3 517.24-5.38 515.64-2.47 513.01-0.93 510.37 0.61 507.29 0.61ZM507.29-2.66L507.29-2.66Q510.64-2.66 512.71-5.36 514.79-8.06 514.79-12.45L514.79-12.45Q514.79-16.87 512.71-19.59 510.64-22.31 507.29-22.31L507.29-22.31Q505.12-22.31 503.44-21.07 501.75-19.82 500.81-17.61 499.87-15.41 499.87-12.45L499.87-12.45Q499.87-8.06 501.95-5.36 504.02-2.66 507.29-2.66ZM529.51 0L525.55 0 525.55-24.98 528.85-24.98 529.21-21.39 529.31-21.39Q531.12-23.17 533.15-24.39 535.17-25.61 537.76-25.61L537.76-25.61Q541.67-25.61 543.5-23.13 545.33-20.65 545.33-15.87L545.33-15.87 545.33 0 541.42 0 541.42-15.36Q541.42-18.92 540.27-20.56 539.13-22.19 536.51-22.19L536.51-22.19Q534.59-22.19 533.02-21.17 531.46-20.14 529.51-18.19L529.51-18.19 529.51 0Z" opacity="1" transform="matrix(1,0,0,1,0,0)" fill="#dddddd" class="slogan-text-1" data-fill-palette-color="secondary" id="text-1"></path></svg></g></svg></g></svg></g></svg></g><g><svg viewBox="0 0 144.38535983259644 144.38535983259644" height="144.38535983259644" width="144.38535983259644"><g><svg xmlns="http://www.w3.org/2000/svg" xmlns:xlink="http://www.w3.org/1999/xlink" version="1.1" x="0" y="0" viewBox="0 0 512 512" enable-background="new 0 0 512 512" xml:space="preserve" height="144.38535983259644" width="144.38535983259644" class="icon-icon-0" data-fill-palette-color="accent" id="icon-0"><path d="M176 448H80V256h96V448zM304 160h-96v288h96V160zM432 64h-96v384h96V64zM512 0v512H0V0H512zM480 32H32v56h288v16H32v48h160v16H32v48h160v16H32v48h32v16H32v48h32v16H32v48h32v16H32v56h448v-56h-32v-16h32v-48h-32v-16h32v-48h-32v-16h32v-48h-32v-16h32v-48h-32v-16h32v-48h-32V88h32V32z" fill="#dddddd" data-fill-palette-color="accent"></path></svg></g></svg></g></svg></g><defs></defs></svg><rect width="395.52" height="102.02006809278232" fill="none" stroke="none" visibility="hidden"></rect></g></svg></g></svg>